<svg xmlns="http://www.w3.org/2000/svg" width="800" height="800" opacity=".1"><g fill="none" stroke="hsl(261, 60%, 38%)" stroke-width=".5"><path d="M0 0h66.667v66.667H0zM66.667 0h66.667v66.667H66.667z"/><path d="M133.333 0H200v66.667h-66.667zM200 0h66.667v66.667H200z"/><path d="M266.667 0h66.667v66.667h-66.667z"/><path d="M333.333 0H400v66.667h-66.667zM400 0h66.667v66.667H400z"/><path d="M466.667 0h66.667v66.667h-66.667z"/><path d="M533.333 0H600v66.667h-66.667zM600 0h66.667v66.667H600zM666.667 0h66.667v66.667h-66.667z"/><path d="M733.333 0H800v66.667h-66.667zM800 0h66.667v66.667H800zM0 66.667h66.667v66.667H0zM66.667 66.667h66.667v66.667H66.667z"/><path d="M133.333 66.667H200v66.667h-66.667zM200 66.667h66.667v66.667H200z"/><path d="M266.667 66.667h66.667v66.667h-66.667z"/><path d="M333.333 66.667H400v66.667h-66.667zM400 66.667h66.667v66.667H400z"/><path d="M466.667 66.667h66.667v66.667h-66.667z"/><path d="M533.333 66.667H600v66.667h-66.667zM600 66.667h66.667v66.667H600zM666.667 66.667h66.667v66.667h-66.667z"/><path d="M733.333 66.667H800v66.667h-66.667zM800 66.667h66.667v66.667H800zM0 133.333h66.667V200H0zM66.667 133.333h66.667V200H66.667z"/><path d="M133.333 133.333H200V200h-66.667zM200 133.333h66.667V200H200z"/><path d="M266.667 133.333h66.667V200h-66.667z"/><path d="M333.333 133.333H400V200h-66.667zM400 133.333h66.667V200H400z"/><path d="M466.667 133.333h66.667V200h-66.667z"/><path d="M533.333 133.333H600V200h-66.667zM600 133.333h66.667V200H600zM666.667 133.333h66.667V200h-66.667z"/><path d="M733.333 133.333H800V200h-66.667zM800 133.333h66.667V200H800zM0 200h66.667v66.667H0zM66.667 200h66.667v66.667H66.667z"/><path d="M133.333 200H200v66.667h-66.667zM200 200h66.667v66.667H200z"/><path d="M266.667 200h66.667v66.667h-66.667z"/><path d="M333.333 200H400v66.667h-66.667zM400 200h66.667v66.667H400z"/><path d="M466.667 200h66.667v66.667h-66.667z"/><path d="M533.333 200H600v66.667h-66.667zM600 200h66.667v66.667H600zM666.667 200h66.667v66.667h-66.667z"/><path d="M733.333 200H800v66.667h-66.667zM800 200h66.667v66.667H800zM0 266.667h66.667v66.667H0zM66.667 266.667h66.667v66.667H66.667z"/><path d="M133.333 266.667H200v66.667h-66.667zM200 266.667h66.667v66.667H200z"/><path d="M266.667 266.667h66.667v66.667h-66.667z"/><path d="M333.333 266.667H400v66.667h-66.667zM400 266.667h66.667v66.667H400z"/><path d="M466.667 266.667h66.667v66.667h-66.667z"/><path d="M533.333 266.667H600v66.667h-66.667zM600 266.667h66.667v66.667H600zM666.667 266.667h66.667v66.667h-66.667z"/><path d="M733.333 266.667H800v66.667h-66.667zM800 266.667h66.667v66.667H800zM0 333.333h66.667V400H0zM66.667 333.333h66.667V400H66.667z"/><path d="M133.333 333.333H200V400h-66.667zM200 333.333h66.667V400H200z"/><path d="M266.667 333.333h66.667V400h-66.667z"/><path d="M333.333 333.333H400V400h-66.667zM400 333.333h66.667V400H400z"/><path d="M466.667 333.333h66.667V400h-66.667z"/><path d="M533.333 333.333H600V400h-66.667zM600 333.333h66.667V400H600zM666.667 333.333h66.667V400h-66.667z"/><path d="M733.333 333.333H800V400h-66.667zM800 333.333h66.667V400H800zM0 400h66.667v66.667H0zM66.667 400h66.667v66.667H66.667z"/><path d="M133.333 400H200v66.667h-66.667zM200 400h66.667v66.667H200z"/><path d="M266.667 400h66.667v66.667h-66.667z"/><path d="M333.333 400H400v66.667h-66.667zM400 400h66.667v66.667H400z"/><path d="M466.667 400h66.667v66.667h-66.667z"/><path d="M533.333 400H600v66.667h-66.667zM600 400h66.667v66.667H600zM666.667 400h66.667v66.667h-66.667z"/><path d="M733.333 400H800v66.667h-66.667zM800 400h66.667v66.667H800zM0 466.667h66.667v66.667H0zM66.667 466.667h66.667v66.667H66.667z"/><path d="M133.333 466.667H200v66.667h-66.667zM200 466.667h66.667v66.667H200z"/><path d="M266.667 466.667h66.667v66.667h-66.667z"/><path d="M333.333 466.667H400v66.667h-66.667zM400 466.667h66.667v66.667H400z"/><path d="M466.667 466.667h66.667v66.667h-66.667z"/><path d="M533.333 466.667H600v66.667h-66.667zM600 466.667h66.667v66.667H600zM666.667 466.667h66.667v66.667h-66.667z"/><path d="M733.333 466.667H800v66.667h-66.667zM800 466.667h66.667v66.667H800zM0 533.333h66.667V600H0zM66.667 533.333h66.667V600H66.667z"/><path d="M133.333 533.333H200V600h-66.667zM200 533.333h66.667V600H200z"/><path d="M266.667 533.333h66.667V600h-66.667z"/><path d="M333.333 533.333H400V600h-66.667zM400 533.333h66.667V600H400z"/><path d="M466.667 533.333h66.667V600h-66.667z"/><path d="M533.333 533.333H600V600h-66.667zM600 533.333h66.667V600H600zM666.667 533.333h66.667V600h-66.667z"/><path d="M733.333 533.333H800V600h-66.667zM800 533.333h66.667V600H800zM0 600h66.667v66.667H0zM66.667 600h66.667v66.667H66.667z"/><path d="M133.333 600H200v66.667h-66.667zM200 600h66.667v66.667H200z"/><path d="M266.667 600h66.667v66.667h-66.667z"/><path d="M333.333 600H400v66.667h-66.667zM400 600h66.667v66.667H400z"/><path d="M466.667 600h66.667v66.667h-66.667z"/><path d="M533.333 600H600v66.667h-66.667zM600 600h66.667v66.667H600zM666.667 600h66.667v66.667h-66.667z"/><path d="M733.333 600H800v66.667h-66.667zM800 600h66.667v66.667H800zM0 666.667h66.667v66.667H0zM66.667 666.667h66.667v66.667H66.667z"/><path d="M133.333 666.667H200v66.667h-66.667zM200 666.667h66.667v66.667H200z"/><path d="M266.667 666.667h66.667v66.667h-66.667z"/><path d="M333.333 666.667H400v66.667h-66.667zM400 666.667h66.667v66.667H400z"/><path d="M466.667 666.667h66.667v66.667h-66.667z"/><path d="M533.333 666.667H600v66.667h-66.667zM600 666.667h66.667v66.667H600zM666.667 666.667h66.667v66.667h-66.667z"/><path d="M733.333 666.667H800v66.667h-66.667zM800 666.667h66.667v66.667H800zM0 733.333h66.667V800H0zM66.667 733.333h66.667V800H66.667z"/><path d="M133.333 733.333H200V800h-66.667zM200 733.333h66.667V800H200z"/><path d="M266.667 733.333h66.667V800h-66.667z"/><path d="M333.333 733.333H400V800h-66.667zM400 733.333h66.667V800H400z"/><path d="M466.667 733.333h66.667V800h-66.667z"/><path d="M533.333 733.333H600V800h-66.667zM600 733.333h66.667V800H600zM666.667 733.333h66.667V800h-66.667z"/><path d="M733.333 733.333H800V800h-66.667zM800 733.333h66.667V800H800zM0 800h66.667v66.667H0zM66.667 800h66.667v66.667H66.667z"/><path d="M133.333 800H200v66.667h-66.667zM200 800h66.667v66.667H200z"/><path d="M266.667 800h66.667v66.667h-66.667z"/><path d="M333.333 800H400v66.667h-66.667zM400 800h66.667v66.667H400z"/><path d="M466.667 800h66.667v66.667h-66.667z"/><path d="M533.333 800H600v66.667h-66.667zM600 800h66.667v66.667H600zM666.667 800h66.667v66.667h-66.667z"/><path d="M733.333 800H800v66.667h-66.667zM800 800h66.667v66.667H800z"/></g></svg>